<svg width="250" height="213" viewBox="0 0 250 213" fill="none" xmlns="http://www.w3.org/2000/svg">
<path d="M154.961 64.1735C153.469 82.4716 138.128 96.9032 119.483 96.9032C99.8532 96.9032 83.884 80.9074 83.884 61.2448C83.884 41.5822 99.8532 25.5865 119.483 25.5865C139.113 25.5865 153.469 40.0181 154.961 58.3162H159.202C157.701 37.6794 140.46 21.3508 119.483 21.3508C98.5061 21.3508 79.6554 39.2465 79.6554 61.2448C79.6554 83.2431 97.5214 101.139 119.483 101.139C141.445 101.139 157.701 84.8073 159.202 64.1735H154.961Z" fill="#E84E0F"/>
<path d="M101.315 53.7507C104.58 42.2388 115.17 33.7825 127.693 33.7825C141.822 33.7825 153.49 44.5472 154.952 58.3162H159.202C157.722 42.2055 144.157 29.5469 127.693 29.5469C112.82 29.5469 100.315 39.8789 96.9445 53.7507H101.315Z" fill="#E84E0F"/>
<path d="M127.693 88.7071C115.167 88.7071 104.577 80.2509 101.315 68.739H96.9445C100.315 82.6108 112.82 92.9428 127.693 92.9428C144.157 92.9428 157.722 80.2842 159.202 64.1735H154.952C153.487 77.9455 141.822 88.7071 127.693 88.7071Z" fill="#E84E0F"/>
<path d="M116.164 66.6241H87.3274C85.4275 66.6241 83.884 65.0781 83.884 63.1751V59.3206C83.884 57.4176 85.4275 55.8716 87.3274 55.8716H116.164C116.559 54.3861 117.115 52.9701 117.807 51.6359H87.3274C83.0957 51.6359 79.9575 55.085 79.9575 59.3206V63.1751C79.9575 67.4138 83.0957 70.8598 87.3274 70.8598H117.807C117.112 69.5256 116.556 68.1097 116.164 66.6241Z" fill="#E84E0F"/>
<path d="M154.937 64.1735C153.53 73.1138 145.788 79.9695 136.473 79.9695C126.164 79.9695 117.78 71.5708 117.78 61.2448C117.78 50.9189 126.164 42.5201 136.473 42.5201C145.785 42.5201 153.53 49.3789 154.937 58.3162H159.202C157.761 47.0341 148.12 38.2845 136.473 38.2845C123.833 38.2845 113.551 48.5832 113.551 61.2448C113.551 73.9065 123.833 84.2052 136.473 84.2052C148.123 84.2052 157.761 75.4555 159.202 64.1735H154.937Z" fill="#E84E0F"/>
<path d="M157.701 68.4092H138.636C135.555 68.4092 133.045 65.898 133.045 62.809V59.6807C133.045 56.5947 135.552 54.0805 138.636 54.0805H157.701V58.3162H138.636C137.887 58.3162 137.274 58.9273 137.274 59.6807V62.809C137.274 63.5593 137.884 64.1735 138.636 64.1735H157.701V68.4092Z" fill="#E84E0F"/>
<path d="M38.3205 164.393C34.9165 164.393 32.0803 164.108 29.8119 163.539C27.5405 162.971 25.7283 162.063 24.366 160.813C23.0038 159.564 22.0403 157.927 21.4724 155.903C20.9046 153.882 20.6207 151.392 20.6207 148.436V133.844C20.6207 130.937 20.9046 128.456 21.4724 126.411C22.0403 124.365 23.0038 122.717 24.366 121.467C25.7283 120.218 27.5435 119.31 29.8119 118.738C32.0803 118.169 34.9165 117.885 38.3205 117.885H70.5186V126.816H38.7947C37.206 126.816 35.9011 126.943 34.8802 127.191C33.8593 127.442 33.0529 127.863 32.4639 128.453C31.8749 129.043 31.4641 129.829 31.2376 130.807C31.011 131.784 30.8963 132.979 30.8963 134.386V148.025C30.8963 149.48 31.008 150.684 31.2376 151.64C31.4641 152.596 31.8719 153.368 32.4639 153.958C33.0529 154.548 33.8714 154.959 34.9135 155.186C35.9555 155.413 37.2724 155.528 38.8612 155.528H70.5156V164.393H38.3205Z" fill="#007861"/>
<path d="M145.444 164.393V133.775L122.775 163.437C121.73 164.756 120.211 165.415 118.215 165.415C116.218 165.415 114.696 164.756 113.654 163.437L91.0516 133.775V164.393H81.658V121.092C81.658 119.637 82.1896 118.569 83.2589 117.888C84.3251 117.207 85.6511 116.865 87.2398 116.865C88.4661 116.865 89.4417 117.035 90.1666 117.377C90.8915 117.718 91.55 118.275 92.142 119.047L118.35 153.891L144.764 119.047C145.353 118.275 145.979 117.715 146.637 117.377C147.296 117.035 148.214 116.865 149.395 116.865C150.983 116.865 152.309 117.207 153.376 117.888C154.442 118.569 154.977 119.64 154.977 121.092V164.393H145.447H145.444Z" fill="#007861"/>
<path d="M210.045 153.688H177.914L171.311 164.393H159.398L186.356 121.434C187.175 120.115 188.147 119.025 189.283 118.16C190.416 117.298 192.05 116.865 194.185 116.865C196.321 116.865 197.882 117.298 199.018 118.16C200.15 119.025 201.129 120.115 201.945 121.434L228.766 164.393H216.784L210.045 153.688ZM182.747 145.71H205.213L193.98 127.367L182.747 145.71Z" fill="#007861"/>
<path d="M25.103 183.229C24.6107 182.966 24.221 182.6 23.9401 182.131C23.6592 181.662 23.5173 181.133 23.5173 180.54C23.5173 179.947 23.6592 179.417 23.9401 178.948C24.221 178.479 24.6107 178.113 25.103 177.85C25.5953 177.587 26.1541 177.457 26.7733 177.457C27.314 177.457 27.8033 177.553 28.2352 177.744C28.6702 177.935 29.0296 178.213 29.3165 178.573L28.2503 179.538C27.8667 179.075 27.4016 178.842 26.8549 178.842C26.5347 178.842 26.2478 178.912 25.9971 179.054C25.7464 179.196 25.5531 179.393 25.4141 179.65C25.2752 179.907 25.2057 180.201 25.2057 180.537C25.2057 180.872 25.2752 181.166 25.4141 181.423C25.5531 181.68 25.7464 181.88 25.9971 182.019C26.2478 182.161 26.5347 182.231 26.8549 182.231C27.4016 182.231 27.8667 182.001 28.2503 181.535L29.3165 182.5C29.0296 182.86 28.6671 183.138 28.2352 183.329C27.8003 183.52 27.314 183.617 26.7733 183.617C26.1541 183.617 25.5953 183.486 25.103 183.223V183.229Z" fill="#007861"/>
<path d="M31.5728 183.226C31.0744 182.96 30.6818 182.594 30.3979 182.125C30.1139 181.656 29.972 181.13 29.972 180.54C29.972 179.95 30.1139 179.423 30.3979 178.954C30.6818 178.485 31.0744 178.119 31.5728 177.853C32.0712 177.587 32.633 177.454 33.2613 177.454C33.8895 177.454 34.4483 177.587 34.9497 177.853C35.4481 178.119 35.8407 178.485 36.1246 178.954C36.4086 179.423 36.5505 179.95 36.5505 180.54C36.5505 181.13 36.4086 181.656 36.1246 182.125C35.8407 182.594 35.4481 182.96 34.9497 183.226C34.4513 183.492 33.8895 183.626 33.2613 183.626C32.633 183.626 32.0742 183.492 31.5728 183.226ZM34.0707 182.022C34.3124 181.88 34.5057 181.683 34.6446 181.426C34.7866 181.169 34.8561 180.875 34.8561 180.54C34.8561 180.204 34.7866 179.91 34.6446 179.653C34.5027 179.396 34.3124 179.196 34.0707 179.057C33.8291 178.915 33.5573 178.845 33.2582 178.845C32.9592 178.845 32.6874 178.915 32.4457 179.057C32.2041 179.199 32.0108 179.396 31.8718 179.653C31.7299 179.91 31.6604 180.204 31.6604 180.54C31.6604 180.875 31.7299 181.169 31.8718 181.426C32.0138 181.683 32.2041 181.883 32.4457 182.022C32.6874 182.164 32.9592 182.234 33.2582 182.234C33.5573 182.234 33.8261 182.164 34.0707 182.022Z" fill="#007861"/>
<path d="M43.114 183.505L43.0959 180.361L41.5736 182.921H40.8305L39.3173 180.446V183.505H37.7708V177.575H39.1481L41.2292 180.996L43.259 177.575H44.6363L44.6544 183.505H43.114Z" fill="#007861"/>
<path d="M50.2755 177.841C50.6712 178.019 50.9732 178.274 51.1877 178.603C51.4021 178.933 51.5078 179.323 51.5078 179.768C51.5078 180.213 51.4021 180.6 51.1877 180.93C50.9732 181.257 50.6681 181.511 50.2755 181.689C49.8798 181.868 49.4147 181.956 48.88 181.956H47.847V183.505H46.1737V177.575H48.88C49.4147 177.575 49.8798 177.662 50.2755 177.841ZM49.5566 180.406C49.7318 180.258 49.8194 180.043 49.8194 179.768C49.8194 179.493 49.7318 179.278 49.5566 179.124C49.3814 178.972 49.1217 178.894 48.7773 178.894H47.847V180.63H48.7773C49.1217 180.63 49.3814 180.555 49.5566 180.406Z" fill="#007861"/>
<path d="M56.3315 182.352H53.8276L53.3624 183.505H51.6528L54.2655 177.575H55.9147L58.5364 183.505H56.7936L56.3285 182.352H56.3315ZM55.8422 181.114L55.081 179.217L54.3199 181.114H55.8422Z" fill="#007861"/>
<path d="M64.9851 177.575V183.505H63.6078L60.9951 180.346V183.505H59.355V177.575H60.7323L63.345 180.733V177.575H64.9851Z" fill="#007861"/>
<path d="M72.1375 177.575V183.505H70.4642V181.193H68.1807V183.505H66.5074V177.575H68.1807V179.801H70.4642V177.575H72.1375Z" fill="#007861"/>
<path d="M73.6599 177.575H75.3332V183.505H73.6599V177.575Z" fill="#007861"/>
<path d="M80.8334 182.352H78.3294L77.8643 183.505H76.1547L78.7674 177.575H80.4166L83.0383 183.505H81.2955L80.8304 182.352H80.8334ZM80.3441 181.114L79.5829 179.217L78.8218 181.114H80.3441Z" fill="#007861"/>
<path d="M86.6508 177.575H89.4508C90.1002 177.575 90.6741 177.696 91.1755 177.938C91.6768 178.18 92.0665 178.525 92.3414 178.972C92.6162 179.42 92.7552 179.941 92.7552 180.54C92.7552 181.139 92.6162 181.662 92.3414 182.107C92.0635 182.552 91.6768 182.896 91.1755 183.142C90.6741 183.384 90.0972 183.505 89.4508 183.505H86.6508V177.575ZM89.3813 182.167C89.8887 182.167 90.2965 182.022 90.6046 181.735C90.9127 181.447 91.0667 181.048 91.0667 180.54C91.0667 180.031 90.9127 179.632 90.6046 179.345C90.2965 179.057 89.8887 178.912 89.3813 178.912H88.3242V182.164H89.3813V182.167Z" fill="#007861"/>
<path d="M98.7266 182.21V183.505H93.9724V177.575H98.6148V178.87H95.6306V179.868H98.2615V181.12H95.6306V182.204H98.7266V182.21Z" fill="#007861"/>
<path d="M108.141 183.505L108.123 180.361L106.601 182.921H105.858L104.345 180.446V183.505H102.798V177.575H104.175L106.257 180.996L108.286 177.575H109.664L109.682 183.505H108.141Z" fill="#007861"/>
<path d="M115.17 182.352H112.666L112.201 183.505H110.491L113.104 177.575H114.753L117.375 183.505H115.632L115.167 182.352H115.17ZM114.681 181.114L113.919 179.217L113.158 181.114H114.681Z" fill="#007861"/>
<path d="M123.821 177.575V183.505H122.443L119.831 180.346V183.505H118.19V177.575H119.568L122.18 180.733V177.575H123.821Z" fill="#007861"/>
<path d="M126.022 182.902C125.536 182.421 125.292 181.741 125.292 180.86V177.575H126.965V180.812C126.965 181.762 127.339 182.234 128.088 182.234C128.838 182.234 129.206 181.759 129.206 180.812V177.575H130.855V180.86C130.855 181.741 130.611 182.421 130.124 182.902C129.635 183.384 128.952 183.623 128.073 183.623C127.194 183.623 126.509 183.384 126.022 182.902Z" fill="#007861"/>
<path d="M133.495 178.906H131.677V177.575H136.981V178.906H135.171V183.505H133.498V178.906H133.495Z" fill="#007861"/>
<path d="M142.698 182.21V183.505H137.944V177.575H142.587V178.87H139.602V179.868H142.233V181.12H139.602V182.204H142.698V182.21Z" fill="#007861"/>
<path d="M149.597 177.575V183.505H148.22L145.607 180.346V183.505H143.967V177.575H145.344L147.957 180.733V177.575H149.597Z" fill="#007861"/>
<path d="M152.403 183.229C151.911 182.966 151.521 182.6 151.24 182.131C150.959 181.662 150.817 181.133 150.817 180.54C150.817 179.947 150.959 179.417 151.24 178.948C151.521 178.479 151.911 178.113 152.403 177.85C152.895 177.587 153.454 177.457 154.073 177.457C154.614 177.457 155.103 177.553 155.535 177.744C155.967 177.935 156.33 178.213 156.617 178.573L155.55 179.538C155.167 179.075 154.702 178.842 154.155 178.842C153.835 178.842 153.548 178.912 153.297 179.054C153.046 179.196 152.853 179.393 152.714 179.65C152.575 179.907 152.506 180.201 152.506 180.537C152.506 180.872 152.575 181.166 152.714 181.423C152.853 181.68 153.046 181.88 153.297 182.019C153.548 182.161 153.835 182.231 154.155 182.231C154.702 182.231 155.167 182.001 155.55 181.535L156.617 182.5C156.33 182.86 155.967 183.138 155.535 183.329C155.1 183.52 154.614 183.617 154.073 183.617C153.454 183.617 152.895 183.486 152.403 183.223V183.229ZM153.122 185.453C152.971 185.42 152.85 185.377 152.753 185.326L152.974 184.691C153.143 184.769 153.318 184.809 153.5 184.809C153.78 184.809 153.922 184.73 153.922 184.573C153.922 184.43 153.796 184.361 153.542 184.361H153.228L153.448 183.429H154.285L154.167 183.937C154.415 183.964 154.599 184.043 154.717 184.17C154.835 184.297 154.895 184.449 154.895 184.624C154.895 184.896 154.774 185.108 154.533 185.268C154.291 185.426 153.965 185.504 153.56 185.504C153.418 185.504 153.273 185.486 153.125 185.453H153.122Z" fill="#007861"/>
<path d="M161.564 182.352H159.06L158.595 183.505H156.885L159.498 177.575H161.147L163.769 183.505H162.026L161.561 182.352H161.564ZM160.579 177.06C160.459 177 160.326 176.921 160.178 176.818C160.072 176.746 159.99 176.694 159.936 176.667C159.882 176.64 159.827 176.625 159.77 176.625C159.658 176.625 159.568 176.664 159.498 176.743C159.432 176.821 159.392 176.93 159.38 177.072H158.595C158.607 176.661 158.707 176.331 158.9 176.089C159.09 175.847 159.347 175.726 159.67 175.726C159.821 175.726 159.957 175.753 160.075 175.811C160.193 175.868 160.329 175.947 160.48 176.047C160.586 176.119 160.667 176.171 160.721 176.198C160.776 176.225 160.83 176.24 160.888 176.24C160.999 176.24 161.09 176.201 161.159 176.125C161.229 176.05 161.265 175.947 161.277 175.817H162.062C162.05 176.219 161.951 176.54 161.757 176.782C161.567 177.024 161.31 177.145 160.987 177.145C160.836 177.145 160.697 177.115 160.576 177.057L160.579 177.06ZM161.075 181.114L160.314 179.217L159.553 181.114H161.075Z" fill="#007861"/>
<path d="M165.799 183.226C165.3 182.96 164.908 182.594 164.624 182.125C164.34 181.656 164.198 181.13 164.198 180.54C164.198 179.95 164.34 179.423 164.624 178.954C164.908 178.485 165.3 178.119 165.799 177.853C166.297 177.587 166.859 177.454 167.487 177.454C168.115 177.454 168.674 177.587 169.176 177.853C169.674 178.119 170.067 178.485 170.351 178.954C170.635 179.423 170.776 179.95 170.776 180.54C170.776 181.13 170.635 181.656 170.351 182.125C170.067 182.594 169.674 182.96 169.176 183.226C168.677 183.492 168.115 183.626 167.487 183.626C166.859 183.626 166.3 183.492 165.799 183.226ZM168.297 182.022C168.538 181.88 168.732 181.683 168.871 181.426C169.01 181.169 169.082 180.875 169.082 180.54C169.082 180.204 169.013 179.91 168.871 179.653C168.729 179.396 168.538 179.196 168.297 179.057C168.055 178.915 167.783 178.845 167.484 178.845C167.185 178.845 166.913 178.915 166.672 179.057C166.43 179.199 166.237 179.396 166.098 179.653C165.959 179.91 165.886 180.204 165.886 180.54C165.886 180.875 165.956 181.169 166.098 181.426C166.24 181.683 166.43 181.883 166.672 182.022C166.913 182.164 167.185 182.234 167.484 182.234C167.783 182.234 168.055 182.164 168.297 182.022Z" fill="#007861"/>
<path d="M178.76 182.352H176.256L175.79 183.505H174.081L176.694 177.575H178.343L180.965 183.505H179.222L178.757 182.352H178.76ZM178.27 181.114L177.509 179.217L176.748 181.114H178.27Z" fill="#007861"/>
<path d="M187.452 177.575L184.915 183.505H183.266L180.738 177.575H182.547L184.154 181.438L185.794 177.575H187.452Z" fill="#007861"/>
<path d="M191.902 182.352H189.398L188.932 183.505H187.223L189.836 177.575H191.485L194.107 183.505H192.364L191.899 182.352H191.902ZM191.412 181.114L190.651 179.217L189.89 181.114H191.412Z" fill="#007861"/>
<path d="M200.552 177.575V183.505H199.175L196.562 180.346V183.505H194.922V177.575H196.299L198.912 180.733V177.575H200.552Z" fill="#007861"/>
<path d="M203.358 183.229C202.866 182.966 202.476 182.6 202.195 182.131C201.914 181.662 201.772 181.133 201.772 180.54C201.772 179.947 201.914 179.417 202.195 178.948C202.476 178.479 202.866 178.113 203.358 177.85C203.851 177.587 204.409 177.457 205.028 177.457C205.569 177.457 206.058 177.553 206.49 177.744C206.922 177.935 207.285 178.213 207.572 178.573L206.505 179.538C206.122 179.075 205.657 178.842 205.11 178.842C204.79 178.842 204.503 178.912 204.252 179.054C204.002 179.196 203.808 179.393 203.669 179.65C203.53 179.907 203.461 180.201 203.461 180.537C203.461 180.872 203.53 181.166 203.669 181.423C203.808 181.68 204.002 181.88 204.252 182.019C204.503 182.161 204.79 182.231 205.11 182.231C205.657 182.231 206.122 182.001 206.505 181.535L207.572 182.5C207.285 182.86 206.922 183.138 206.49 183.329C206.055 183.52 205.569 183.617 205.028 183.617C204.409 183.617 203.851 183.486 203.358 183.223V183.229ZM204.077 185.453C203.926 185.42 203.805 185.377 203.709 185.326L203.929 184.691C204.098 184.769 204.273 184.809 204.455 184.809C204.735 184.809 204.877 184.73 204.877 184.573C204.877 184.43 204.751 184.361 204.497 184.361H204.183L204.403 183.429H205.24L205.122 183.937C205.37 183.964 205.554 184.043 205.672 184.17C205.79 184.297 205.85 184.449 205.85 184.624C205.85 184.896 205.729 185.108 205.488 185.268C205.246 185.426 204.92 185.504 204.515 185.504C204.373 185.504 204.228 185.486 204.08 185.453H204.077Z" fill="#007861"/>
<path d="M212.519 182.352H210.015L209.55 183.505H207.841L210.453 177.575H212.102L214.724 183.505H212.981L212.516 182.352H212.519ZM212.03 181.114L211.269 179.217L210.508 181.114H212.03Z" fill="#007861"/>
<path d="M215.54 177.575H218.34C218.989 177.575 219.563 177.696 220.064 177.938C220.566 178.18 220.955 178.525 221.23 178.972C221.508 179.42 221.644 179.941 221.644 180.54C221.644 181.139 221.505 181.662 221.23 182.107C220.955 182.552 220.566 182.896 220.064 183.142C219.563 183.384 218.986 183.505 218.34 183.505H215.54V177.575ZM218.27 182.167C218.778 182.167 219.185 182.022 219.493 181.735C219.802 181.447 219.956 181.048 219.956 180.54C219.956 180.031 219.802 179.632 219.493 179.345C219.185 179.057 218.778 178.912 218.27 178.912H217.213V182.164H218.27V182.167Z" fill="#007861"/>
<path d="M226.746 182.352H224.242L223.776 183.505H222.067L224.68 177.575H226.329L228.95 183.505H227.208L226.742 182.352H226.746ZM226.256 181.114L225.495 179.217L224.734 181.114H226.256Z" fill="#007861"/>
<path d="M228.537 189.226H23.5264V191.646H228.537V189.226Z" fill="#E84E0F"/>
</svg>
