<svg width="250" height="213" viewBox="0 0 250 213" fill="none" xmlns="http://www.w3.org/2000/svg">
<path d="M154.961 64.1735C153.469 82.4716 138.128 96.9032 119.483 96.9032C99.8532 96.9032 83.8841 80.9074 83.8841 61.2448C83.8841 41.5822 99.8532 25.5865 119.483 25.5865C139.113 25.5865 153.469 40.0181 154.961 58.3162H159.202C157.701 37.6794 140.46 21.3508 119.483 21.3508C98.5061 21.3508 79.6554 39.2466 79.6554 61.2448C79.6554 83.2431 97.5214 101.139 119.483 101.139C141.445 101.139 157.701 84.8073 159.202 64.1735H154.961Z" fill="#E84E0F"/>
<path d="M101.315 53.7507C104.58 42.2388 115.17 33.7825 127.693 33.7825C141.822 33.7825 153.49 44.5472 154.952 58.3162H159.202C157.722 42.2055 144.157 29.5469 127.693 29.5469C112.82 29.5469 100.315 39.8789 96.9445 53.7507H101.315Z" fill="#E84E0F"/>
<path d="M127.693 88.7071C115.167 88.7071 104.577 80.2509 101.315 68.7389H96.9445C100.315 82.6107 112.82 92.9428 127.693 92.9428C144.157 92.9428 157.722 80.2842 159.202 64.1735H154.952C153.487 77.9455 141.822 88.7071 127.693 88.7071Z" fill="#E84E0F"/>
<path d="M116.164 66.6241H87.3274C85.4275 66.6241 83.8841 65.0781 83.8841 63.1751V59.3206C83.8841 57.4176 85.4275 55.8715 87.3274 55.8715H116.164C116.559 54.386 117.115 52.9701 117.807 51.6359H87.3274C83.0957 51.6359 79.9575 55.0849 79.9575 59.3206V63.1751C79.9575 67.4138 83.0957 70.8598 87.3274 70.8598H117.807C117.112 69.5255 116.556 68.1096 116.164 66.6241Z" fill="#E84E0F"/>
<path d="M154.937 64.1735C153.53 73.1138 145.788 79.9695 136.473 79.9695C126.164 79.9695 117.78 71.5708 117.78 61.2448C117.78 50.9188 126.164 42.5201 136.473 42.5201C145.785 42.5201 153.53 49.3789 154.937 58.3161H159.202C157.761 47.0341 148.12 38.2844 136.473 38.2844C123.833 38.2844 113.551 48.5832 113.551 61.2448C113.551 73.9064 123.833 84.2052 136.473 84.2052C148.123 84.2052 157.761 75.4555 159.202 64.1735H154.937Z" fill="#E84E0F"/>
<path d="M157.701 68.4091H138.636C135.555 68.4091 133.045 65.898 133.045 62.809V59.6806C133.045 56.5946 135.552 54.0804 138.636 54.0804H157.701V58.3161H138.636C137.887 58.3161 137.274 58.9273 137.274 59.6806V62.809C137.274 63.5593 137.884 64.1735 138.636 64.1735H157.701V68.4091Z" fill="#E84E0F"/>
<path d="M38.3205 164.393C34.9164 164.393 32.0802 164.108 29.8119 163.539C27.5405 162.971 25.7282 162.063 24.366 160.813C23.0038 159.564 22.0402 157.927 21.4724 155.903C20.9046 153.882 20.6206 151.392 20.6206 148.436V133.844C20.6206 130.937 20.9046 128.456 21.4724 126.411C22.0402 124.365 23.0038 122.717 24.366 121.467C25.7282 120.218 27.5435 119.31 29.8119 118.738C32.0802 118.169 34.9164 117.885 38.3205 117.885H70.5185V126.816H38.7947C37.206 126.816 35.9011 126.943 34.8802 127.191C33.8593 127.442 33.0528 127.863 32.4638 128.453C31.8749 129.043 31.4641 129.829 31.2375 130.807C31.011 131.784 30.8962 132.979 30.8962 134.386V148.025C30.8962 149.48 31.008 150.684 31.2375 151.64C31.4641 152.596 31.8718 153.368 32.4638 153.958C33.0528 154.548 33.8714 154.959 34.9134 155.186C35.9555 155.413 37.2724 155.528 38.8612 155.528H70.5155V164.393H38.3205Z" fill="white"/>
<path d="M145.444 164.393V133.775L122.775 163.436C121.73 164.756 120.211 165.415 118.215 165.415C116.218 165.415 114.696 164.756 113.654 163.436L91.0516 133.775V164.393H81.658V121.092C81.658 119.637 82.1896 118.569 83.2588 117.888C84.325 117.207 85.651 116.865 87.2398 116.865C88.4661 116.865 89.4417 117.035 90.1666 117.377C90.8915 117.718 91.55 118.275 92.142 119.047L118.35 153.891L144.764 119.047C145.353 118.275 145.979 117.715 146.637 117.377C147.295 117.035 148.214 116.865 149.395 116.865C150.983 116.865 152.309 117.207 153.376 117.888C154.442 118.569 154.977 119.64 154.977 121.092V164.393H145.447H145.444Z" fill="white"/>
<path d="M210.045 153.688H177.914L171.311 164.393H159.398L186.356 121.434C187.175 120.115 188.147 119.025 189.283 118.16C190.415 117.298 192.05 116.865 194.185 116.865C196.32 116.865 197.882 117.298 199.018 118.16C200.15 119.025 201.129 120.115 201.945 121.434L228.766 164.393H216.784L210.045 153.688ZM182.747 145.71H205.213L193.98 127.367L182.747 145.71Z" fill="white"/>
<path d="M25.103 183.229C24.6107 182.966 24.221 182.6 23.9401 182.131C23.6592 181.662 23.5173 181.133 23.5173 180.54C23.5173 179.947 23.6592 179.417 23.9401 178.948C24.221 178.479 24.6107 178.113 25.103 177.85C25.5953 177.587 26.1541 177.457 26.7733 177.457C27.314 177.457 27.8033 177.553 28.2352 177.744C28.6702 177.935 29.0296 178.213 29.3165 178.573L28.2503 179.538C27.8667 179.075 27.4016 178.842 26.8549 178.842C26.5347 178.842 26.2477 178.912 25.9971 179.054C25.7464 179.196 25.553 179.393 25.4141 179.65C25.2752 179.907 25.2057 180.201 25.2057 180.536C25.2057 180.872 25.2752 181.166 25.4141 181.423C25.553 181.68 25.7464 181.88 25.9971 182.019C26.2477 182.161 26.5347 182.231 26.8549 182.231C27.4016 182.231 27.8667 182.001 28.2503 181.535L29.3165 182.5C29.0296 182.86 28.6671 183.138 28.2352 183.329C27.8003 183.52 27.314 183.616 26.7733 183.616C26.1541 183.616 25.5953 183.486 25.103 183.223V183.229Z" fill="white"/>
<path d="M31.5728 183.226C31.0744 182.96 30.6818 182.594 30.3979 182.125C30.1139 181.656 29.972 181.129 29.972 180.539C29.972 179.949 30.1139 179.423 30.3979 178.954C30.6818 178.485 31.0744 178.119 31.5728 177.853C32.0712 177.587 32.633 177.453 33.2612 177.453C33.8895 177.453 34.4483 177.587 34.9497 177.853C35.4481 178.119 35.8407 178.485 36.1246 178.954C36.4086 179.423 36.5505 179.949 36.5505 180.539C36.5505 181.129 36.4086 181.656 36.1246 182.125C35.8407 182.594 35.4481 182.96 34.9497 183.226C34.4513 183.492 33.8895 183.625 33.2612 183.625C32.633 183.625 32.0742 183.492 31.5728 183.226ZM34.0707 182.022C34.3124 181.88 34.5057 181.683 34.6446 181.426C34.7866 181.169 34.856 180.875 34.856 180.539C34.856 180.204 34.7866 179.91 34.6446 179.653C34.5026 179.396 34.3124 179.196 34.0707 179.057C33.8291 178.915 33.5572 178.845 33.2582 178.845C32.9592 178.845 32.6874 178.915 32.4457 179.057C32.2041 179.199 32.0108 179.396 31.8718 179.653C31.7299 179.91 31.6604 180.204 31.6604 180.539C31.6604 180.875 31.7299 181.169 31.8718 181.426C32.0138 181.683 32.2041 181.883 32.4457 182.022C32.6874 182.164 32.9592 182.234 33.2582 182.234C33.5572 182.234 33.8261 182.164 34.0707 182.022Z" fill="white"/>
<path d="M43.114 183.504L43.0958 180.361L41.5735 182.92H40.8305L39.3173 180.446V183.504H37.7708V177.574H39.1481L41.2292 180.996L43.2589 177.574H44.6363L44.6544 183.504H43.114Z" fill="white"/>
<path d="M50.2755 177.841C50.6711 178.019 50.9732 178.273 51.1876 178.603C51.4021 178.933 51.5078 179.323 51.5078 179.768C51.5078 180.213 51.4021 180.6 51.1876 180.93C50.9732 181.256 50.6681 181.511 50.2755 181.689C49.8798 181.868 49.4146 181.955 48.88 181.955H47.847V183.504H46.1737V177.574H48.88C49.4146 177.574 49.8798 177.662 50.2755 177.841ZM49.5566 180.406C49.7318 180.258 49.8194 180.043 49.8194 179.768C49.8194 179.493 49.7318 179.278 49.5566 179.124C49.3814 178.972 49.1217 178.894 48.7773 178.894H47.847V180.63H48.7773C49.1217 180.63 49.3814 180.555 49.5566 180.406Z" fill="white"/>
<path d="M56.3315 182.352H53.8275L53.3624 183.504H51.6528L54.2655 177.574H55.9146L58.5364 183.504H56.7936L56.3285 182.352H56.3315ZM55.8422 181.114L55.081 179.217L54.3198 181.114H55.8422Z" fill="white"/>
<path d="M64.9851 177.574V183.504H63.6078L60.9951 180.346V183.504H59.3549V177.574H60.7323L63.345 180.733V177.574H64.9851Z" fill="white"/>
<path d="M72.1375 177.574V183.504H70.4642V181.193H68.1807V183.504H66.5074V177.574H68.1807V179.801H70.4642V177.574H72.1375Z" fill="white"/>
<path d="M73.6598 177.574H75.3332V183.504H73.6598V177.574Z" fill="white"/>
<path d="M80.8334 182.352H78.3294L77.8643 183.504H76.1547L78.7674 177.574H80.4166L83.0383 183.504H81.2955L80.8304 182.352H80.8334ZM80.3441 181.114L79.5829 179.217L78.8218 181.114H80.3441Z" fill="white"/>
<path d="M86.6508 177.574H89.4507C90.1001 177.574 90.674 177.695 91.1754 177.938C91.6768 178.18 92.0665 178.524 92.3413 178.972C92.6162 179.42 92.7551 179.94 92.7551 180.539C92.7551 181.138 92.6162 181.662 92.3413 182.107C92.0634 182.551 91.6768 182.896 91.1754 183.141C90.674 183.383 90.0971 183.504 89.4507 183.504H86.6508V177.574ZM89.3813 182.167C89.8887 182.167 90.2965 182.022 90.6046 181.735C90.9126 181.447 91.0667 181.048 91.0667 180.539C91.0667 180.031 90.9126 179.632 90.6046 179.344C90.2965 179.057 89.8887 178.912 89.3813 178.912H88.3241V182.164H89.3813V182.167Z" fill="white"/>
<path d="M98.7266 182.21V183.504H93.9724V177.574H98.6148V178.869H95.6306V179.868H98.2614V181.12H95.6306V182.203H98.7266V182.21Z" fill="white"/>
<path d="M108.141 183.504L108.123 180.361L106.601 182.92H105.858L104.345 180.446V183.504H102.798V177.574H104.175L106.257 180.996L108.286 177.574H109.664L109.682 183.504H108.141Z" fill="white"/>
<path d="M115.17 182.352H112.666L112.201 183.504H110.491L113.104 177.574H114.753L117.375 183.504H115.632L115.167 182.352H115.17ZM114.681 181.114L113.919 179.217L113.158 181.114H114.681Z" fill="white"/>
<path d="M123.821 177.574V183.504H122.443L119.83 180.346V183.504H118.19V177.574H119.568L122.18 180.733V177.574H123.821Z" fill="white"/>
<path d="M126.022 182.902C125.536 182.421 125.291 181.741 125.291 180.86V177.574H126.965V180.812C126.965 181.762 127.339 182.234 128.088 182.234C128.837 182.234 129.206 181.759 129.206 180.812V177.574H130.855V180.86C130.855 181.741 130.61 182.421 130.124 182.902C129.635 183.383 128.952 183.622 128.073 183.622C127.194 183.622 126.509 183.383 126.022 182.902Z" fill="white"/>
<path d="M133.495 178.906H131.677V177.574H136.981V178.906H135.171V183.504H133.498V178.906H133.495Z" fill="white"/>
<path d="M142.698 182.21V183.504H137.944V177.574H142.587V178.869H139.602V179.868H142.233V181.12H139.602V182.203H142.698V182.21Z" fill="white"/>
<path d="M149.597 177.574V183.504H148.22L145.607 180.346V183.504H143.967V177.574H145.344L147.957 180.733V177.574H149.597Z" fill="white"/>
<path d="M152.403 183.229C151.911 182.966 151.521 182.6 151.24 182.131C150.959 181.662 150.817 181.133 150.817 180.54C150.817 179.947 150.959 179.417 151.24 178.948C151.521 178.479 151.911 178.113 152.403 177.85C152.895 177.587 153.454 177.457 154.073 177.457C154.614 177.457 155.103 177.553 155.535 177.744C155.967 177.935 156.33 178.213 156.617 178.573L155.55 179.538C155.167 179.075 154.702 178.842 154.155 178.842C153.835 178.842 153.548 178.912 153.297 179.054C153.046 179.196 152.853 179.393 152.714 179.65C152.575 179.907 152.506 180.201 152.506 180.536C152.506 180.872 152.575 181.166 152.714 181.423C152.853 181.68 153.046 181.88 153.297 182.019C153.548 182.161 153.835 182.231 154.155 182.231C154.702 182.231 155.167 182.001 155.55 181.535L156.617 182.5C156.33 182.86 155.967 183.138 155.535 183.329C155.1 183.52 154.614 183.616 154.073 183.616C153.454 183.616 152.895 183.486 152.403 183.223V183.229ZM153.122 185.453C152.971 185.42 152.85 185.377 152.753 185.326L152.974 184.69C153.143 184.769 153.318 184.808 153.5 184.808C153.78 184.808 153.922 184.73 153.922 184.572C153.922 184.43 153.796 184.361 153.542 184.361H153.228L153.448 183.429H154.285L154.167 183.937C154.415 183.964 154.599 184.043 154.717 184.17C154.835 184.297 154.895 184.448 154.895 184.624C154.895 184.896 154.774 185.108 154.532 185.268C154.291 185.426 153.965 185.504 153.56 185.504C153.418 185.504 153.273 185.486 153.125 185.453H153.122Z" fill="white"/>
<path d="M161.564 182.352H159.06L158.595 183.504H156.885L159.498 177.575H161.147L163.769 183.504H162.026L161.561 182.352H161.564ZM160.579 177.06C160.459 177 160.326 176.921 160.178 176.818C160.072 176.746 159.99 176.694 159.936 176.667C159.882 176.64 159.827 176.625 159.77 176.625C159.658 176.625 159.568 176.664 159.498 176.743C159.432 176.821 159.392 176.93 159.38 177.072H158.595C158.607 176.661 158.707 176.331 158.9 176.089C159.09 175.847 159.347 175.726 159.67 175.726C159.821 175.726 159.957 175.753 160.075 175.811C160.193 175.868 160.329 175.947 160.48 176.047C160.585 176.119 160.667 176.171 160.721 176.198C160.776 176.225 160.83 176.24 160.888 176.24C160.999 176.24 161.09 176.201 161.159 176.125C161.229 176.05 161.265 175.947 161.277 175.817H162.062C162.05 176.219 161.951 176.54 161.757 176.782C161.567 177.024 161.31 177.145 160.987 177.145C160.836 177.145 160.697 177.115 160.576 177.057L160.579 177.06ZM161.075 181.114L160.314 179.217L159.552 181.114H161.075Z" fill="white"/>
<path d="M165.799 183.226C165.3 182.96 164.908 182.594 164.624 182.125C164.34 181.656 164.198 181.129 164.198 180.539C164.198 179.949 164.34 179.423 164.624 178.954C164.908 178.485 165.3 178.119 165.799 177.853C166.297 177.587 166.859 177.453 167.487 177.453C168.115 177.453 168.674 177.587 169.176 177.853C169.674 178.119 170.067 178.485 170.351 178.954C170.635 179.423 170.776 179.949 170.776 180.539C170.776 181.129 170.635 181.656 170.351 182.125C170.067 182.594 169.674 182.96 169.176 183.226C168.677 183.492 168.115 183.625 167.487 183.625C166.859 183.625 166.3 183.492 165.799 183.226ZM168.297 182.022C168.538 181.88 168.732 181.683 168.871 181.426C169.01 181.169 169.082 180.875 169.082 180.539C169.082 180.204 169.013 179.91 168.871 179.653C168.729 179.396 168.538 179.196 168.297 179.057C168.055 178.915 167.783 178.845 167.484 178.845C167.185 178.845 166.913 178.915 166.672 179.057C166.43 179.199 166.237 179.396 166.098 179.653C165.959 179.91 165.886 180.204 165.886 180.539C165.886 180.875 165.956 181.169 166.098 181.426C166.24 181.683 166.43 181.883 166.672 182.022C166.913 182.164 167.185 182.234 167.484 182.234C167.783 182.234 168.055 182.164 168.297 182.022Z" fill="white"/>
<path d="M178.76 182.352H176.256L175.79 183.504H174.081L176.694 177.574H178.343L180.964 183.504H179.222L178.757 182.352H178.76ZM178.27 181.114L177.509 179.217L176.748 181.114H178.27Z" fill="white"/>
<path d="M187.452 177.574L184.915 183.504H183.266L180.738 177.574H182.547L184.154 181.438L185.794 177.574H187.452Z" fill="white"/>
<path d="M191.902 182.352H189.398L188.932 183.504H187.223L189.836 177.574H191.485L194.106 183.504H192.364L191.899 182.352H191.902ZM191.412 181.114L190.651 179.217L189.89 181.114H191.412Z" fill="white"/>
<path d="M200.552 177.574V183.504H199.175L196.562 180.346V183.504H194.922V177.574H196.299L198.912 180.733V177.574H200.552Z" fill="white"/>
<path d="M203.358 183.229C202.866 182.966 202.476 182.6 202.195 182.131C201.914 181.662 201.772 181.133 201.772 180.54C201.772 179.947 201.914 179.417 202.195 178.948C202.476 178.479 202.866 178.113 203.358 177.85C203.85 177.587 204.409 177.457 205.028 177.457C205.569 177.457 206.058 177.553 206.49 177.744C206.922 177.935 207.285 178.213 207.572 178.573L206.505 179.538C206.122 179.075 205.657 178.842 205.11 178.842C204.79 178.842 204.503 178.912 204.252 179.054C204.001 179.196 203.808 179.393 203.669 179.65C203.53 179.907 203.461 180.201 203.461 180.536C203.461 180.872 203.53 181.166 203.669 181.423C203.808 181.68 204.001 181.88 204.252 182.019C204.503 182.161 204.79 182.231 205.11 182.231C205.657 182.231 206.122 182.001 206.505 181.535L207.572 182.5C207.285 182.86 206.922 183.138 206.49 183.329C206.055 183.52 205.569 183.616 205.028 183.616C204.409 183.616 203.85 183.486 203.358 183.223V183.229ZM204.077 185.453C203.926 185.42 203.805 185.377 203.709 185.326L203.929 184.69C204.098 184.769 204.273 184.808 204.455 184.808C204.735 184.808 204.877 184.73 204.877 184.572C204.877 184.43 204.751 184.361 204.497 184.361H204.183L204.403 183.429H205.24L205.122 183.937C205.37 183.964 205.554 184.043 205.672 184.17C205.79 184.297 205.85 184.448 205.85 184.624C205.85 184.896 205.729 185.108 205.488 185.268C205.246 185.426 204.92 185.504 204.515 185.504C204.373 185.504 204.228 185.486 204.08 185.453H204.077Z" fill="white"/>
<path d="M212.519 182.352H210.015L209.55 183.504H207.84L210.453 177.574H212.102L214.724 183.504H212.981L212.516 182.352H212.519ZM212.03 181.114L211.269 179.217L210.508 181.114H212.03Z" fill="white"/>
<path d="M215.54 177.574H218.34C218.989 177.574 219.563 177.695 220.064 177.938C220.566 178.18 220.955 178.524 221.23 178.972C221.508 179.42 221.644 179.94 221.644 180.539C221.644 181.138 221.505 181.662 221.23 182.107C220.955 182.551 220.566 182.896 220.064 183.141C219.563 183.383 218.986 183.504 218.34 183.504H215.54V177.574ZM218.27 182.167C218.778 182.167 219.185 182.022 219.493 181.735C219.801 181.447 219.956 181.048 219.956 180.539C219.956 180.031 219.801 179.632 219.493 179.344C219.185 179.057 218.778 178.912 218.27 178.912H217.213V182.164H218.27V182.167Z" fill="white"/>
<path d="M226.746 182.352H224.242L223.776 183.504H222.067L224.68 177.574H226.329L228.95 183.504H227.208L226.742 182.352H226.746ZM226.256 181.114L225.495 179.217L224.734 181.114H226.256Z" fill="white"/>
<path d="M228.537 189.226H23.5263V191.646H228.537V189.226Z" fill="#E84E0F"/>
</svg>
