<svg width="306" height="81" viewBox="0 0 306 81" fill="none" xmlns="http://www.w3.org/2000/svg">
<path d="M75.6317 43.4838C74.1332 61.8305 58.7259 76.3004 40 76.3004C20.2852 76.3004 4.24693 60.2622 4.24693 40.5474C4.24693 20.8325 20.2852 4.79429 40 4.79429C59.7148 4.79429 74.1332 19.2642 75.6317 37.6109H79.8908C78.3831 16.9193 61.0678 0.547363 40 0.547363C18.9322 0.547363 0 18.4906 0 40.5474C0 62.6041 17.9433 80.5474 40 80.5474C62.0567 80.5474 78.3831 64.1724 79.8908 43.4838H75.6317Z" fill="#E84E0F"/>
<path d="M21.7533 33.0334C25.0325 21.4909 35.668 13.0122 48.245 13.0122C62.4358 13.0122 74.1543 23.8055 75.6225 37.611H79.8907C78.4043 21.4575 64.7807 8.76526 48.245 8.76526C33.308 8.76526 20.7492 19.1247 17.3638 33.0334H21.7533Z" fill="#E84E0F"/>
<path d="M48.2479 68.0827C35.6679 68.0827 25.0324 59.604 21.7562 48.0615H17.3667C20.7521 61.9702 33.3109 72.3296 48.2479 72.3296C64.7837 72.3296 78.4072 59.6374 79.8936 43.4839H75.6255C74.1542 57.2925 62.4387 68.0827 48.2479 68.0827Z" fill="#E84E0F"/>
<path d="M36.6663 45.938H7.70526C5.79717 45.938 4.24704 44.3878 4.24704 42.4798V38.6151C4.24704 36.707 5.79717 35.1568 7.70526 35.1568H36.6663C37.0637 33.6674 37.6218 32.2477 38.3165 30.9099H7.70526C3.4553 30.9099 0.303467 34.3681 0.303467 38.6151V42.4798C0.303467 46.7297 3.4553 50.1849 7.70526 50.1849H38.3165C37.6188 48.8471 37.0606 47.4274 36.6663 45.938Z" fill="#E84E0F"/>
<path d="M75.6075 43.484C74.1939 52.448 66.419 59.322 57.0636 59.322C46.7102 59.322 38.2892 50.9009 38.2892 40.5475C38.2892 30.1941 46.7102 21.773 57.0636 21.773C66.416 21.773 74.1939 28.65 75.6075 37.6111H79.8909C78.4439 26.2991 68.7609 17.5261 57.0636 17.5261C44.3683 17.5261 34.0422 27.8522 34.0422 40.5475C34.0422 53.2428 44.3683 63.5689 57.0636 63.5689C68.7639 63.5689 78.4439 54.796 79.8909 43.484H75.6075Z" fill="#E84E0F"/>
<path d="M78.3864 47.7306H59.2388C56.1446 47.7306 53.6238 45.2128 53.6238 42.1156V38.9789C53.6238 35.8847 56.1416 33.3639 59.2388 33.3639H78.3864V37.6108H59.2388C58.4865 37.6108 57.8707 38.2236 57.8707 38.9789V42.1156C57.8707 42.8679 58.4835 43.4837 59.2388 43.4837H78.3864V47.7306Z" fill="#E84E0F"/>
<path d="M114.415 51.3194C110.997 51.3194 108.148 51.0342 105.87 50.4639C103.589 49.8936 101.769 48.9836 100.4 47.7307C99.0324 46.4779 98.0647 44.8368 97.4944 42.8073C96.9241 40.7809 96.6389 38.2844 96.6389 35.3206V20.6899C96.6389 17.7747 96.9241 15.2872 97.4944 13.2366C98.0647 11.1859 99.0324 9.53264 100.4 8.2798C101.769 7.02695 103.592 6.1169 105.87 5.54356C108.148 4.97326 110.997 4.68811 114.415 4.68811H146.753V13.6431H114.892C113.296 13.6431 111.986 13.7705 110.96 14.0192C109.935 14.271 109.125 14.6927 108.533 15.2842C107.942 15.8757 107.529 16.6644 107.302 17.6443C107.074 18.6241 106.959 19.8223 106.959 21.2329V34.908C106.959 36.3672 107.071 37.5745 107.302 38.5331C107.529 39.4917 107.939 40.2652 108.533 40.8568C109.125 41.4483 109.947 41.8609 110.994 42.0884C112.04 42.3159 113.363 42.4312 114.958 42.4312H146.75V51.3194H114.412H114.415Z" fill="#007861"/>
<path d="M222.002 51.3195V20.6202L199.235 50.3609C198.186 51.6835 196.66 52.3448 194.655 52.3448C192.65 52.3448 191.121 51.6835 190.074 50.3609L167.374 20.6202V51.3195H157.94V7.90372C157.94 6.4446 158.474 5.37376 159.548 4.69122C160.619 4.00868 161.951 3.66589 163.546 3.66589C164.778 3.66589 165.758 3.83577 166.486 4.17856C167.214 4.52135 167.875 5.07951 168.47 5.85306L194.791 40.7901L221.32 5.85306C221.911 5.07951 222.539 4.51831 223.2 4.17856C223.862 3.83577 224.784 3.66589 225.97 3.66589C227.566 3.66589 228.897 4.00868 229.968 4.69122C231.039 5.37376 231.576 6.44763 231.576 7.90372V51.3195H222.005H222.002Z" fill="#007861"/>
<path d="M286.883 40.5839H254.613L247.981 51.3165H236.017L263.091 8.24358C263.913 6.92096 264.89 5.8289 266.031 4.96131C267.168 4.09676 268.809 3.66296 270.954 3.66296C273.099 3.66296 274.667 4.09676 275.808 4.96131C276.945 5.8289 277.928 6.92096 278.747 8.24358L305.685 51.3165H293.651L286.883 40.5839ZM259.466 32.5845H282.03L270.748 14.1923L259.466 32.5845Z" fill="#007861"/>
<path d="M101.144 70.2062C100.649 69.9423 100.258 69.5752 99.9757 69.105C99.6936 68.6348 99.551 68.1039 99.551 67.5094C99.551 66.9148 99.6936 66.3839 99.9757 65.9137C100.258 65.4435 100.649 65.0765 101.144 64.8126C101.638 64.5487 102.199 64.4182 102.821 64.4182C103.364 64.4182 103.856 64.5153 104.289 64.7064C104.726 64.8975 105.087 65.1766 105.375 65.5376L104.305 66.5053C103.919 66.0411 103.452 65.8076 102.903 65.8076C102.582 65.8076 102.293 65.8773 102.042 66.0199C101.79 66.1625 101.596 66.3597 101.456 66.6175C101.317 66.8754 101.247 67.1696 101.247 67.5063C101.247 67.8431 101.317 68.1373 101.456 68.3952C101.596 68.653 101.79 68.8532 102.042 68.9928C102.293 69.1353 102.582 69.2051 102.903 69.2051C103.452 69.2051 103.919 68.9746 104.305 68.5074L105.375 69.4751C105.087 69.8361 104.723 70.1152 104.289 70.3063C103.853 70.4974 103.364 70.5945 102.821 70.5945C102.199 70.5945 101.638 70.464 101.144 70.2001V70.2062Z" fill="#007861"/>
<path d="M107.641 70.2001C107.141 69.9331 106.747 69.5661 106.461 69.0959C106.176 68.6257 106.034 68.0978 106.034 67.5063C106.034 66.9148 106.176 66.3869 106.461 65.9167C106.747 65.4465 107.141 65.0795 107.641 64.8125C108.142 64.5456 108.706 64.4121 109.337 64.4121C109.968 64.4121 110.529 64.5456 111.033 64.8125C111.533 65.0795 111.928 65.4465 112.213 65.9167C112.498 66.3869 112.641 66.9148 112.641 67.5063C112.641 68.0978 112.498 68.6257 112.213 69.0959C111.928 69.5661 111.533 69.9331 111.033 70.2001C110.532 70.467 109.968 70.6005 109.337 70.6005C108.706 70.6005 108.145 70.467 107.641 70.2001ZM110.15 68.9927C110.393 68.8502 110.587 68.653 110.727 68.3951C110.869 68.1373 110.939 67.843 110.939 67.5063C110.939 67.1696 110.869 66.8753 110.727 66.6175C110.584 66.3596 110.393 66.1594 110.15 66.0199C109.907 65.8773 109.634 65.8075 109.334 65.8075C109.034 65.8075 108.761 65.8773 108.518 66.0199C108.275 66.1624 108.081 66.3596 107.942 66.6175C107.802 66.8753 107.729 67.1696 107.729 67.5063C107.729 67.843 107.799 68.1373 107.942 68.3951C108.084 68.653 108.275 68.8532 108.518 68.9927C108.761 69.1353 109.034 69.2051 109.334 69.2051C109.634 69.2051 109.904 69.1353 110.15 68.9927Z" fill="#007861"/>
<path d="M119.23 70.4822L119.211 67.3304L117.682 69.8967H116.936L115.416 67.4153V70.4822H113.863V64.5365H115.247L117.337 67.9674L119.375 64.5365H120.758L120.777 70.4822H119.23Z" fill="#007861"/>
<path d="M126.425 64.8034C126.822 64.9824 127.126 65.2372 127.341 65.5679C127.556 65.8985 127.663 66.2899 127.663 66.7358C127.663 67.1817 127.556 67.57 127.341 67.9007C127.126 68.2283 126.819 68.4831 126.425 68.6621C126.031 68.8411 125.56 68.929 125.023 68.929H123.986V70.4822H122.305V64.5365H125.023C125.56 64.5365 126.028 64.6245 126.425 64.8034ZM125.703 67.3759C125.879 67.2272 125.967 67.0119 125.967 66.7358C125.967 66.4598 125.879 66.2444 125.703 66.0897C125.527 65.938 125.266 65.8591 124.92 65.8591H123.986V67.6003H124.92C125.266 67.6003 125.527 67.5245 125.703 67.3759Z" fill="#007861"/>
<path d="M132.507 69.3264H129.992L129.525 70.4822H127.808L130.432 64.5365H132.089L134.722 70.4822H132.971L132.504 69.3264H132.507ZM132.016 68.0857L131.251 66.1837L130.487 68.0857H132.016Z" fill="#007861"/>
<path d="M141.195 64.5365V70.4822H139.812L137.188 67.3152V70.4822H135.541V64.5365H136.924L139.548 67.7035V64.5365H141.195Z" fill="#007861"/>
<path d="M148.382 64.5365V70.4822H146.701V68.1646H144.408V70.4822H142.727V64.5365H144.408V66.7692H146.701V64.5365H148.382Z" fill="#007861"/>
<path d="M149.911 64.5365H151.591V70.4822H149.911V64.5365Z" fill="#007861"/>
<path d="M157.112 69.3264H154.597L154.13 70.4822H152.413L155.037 64.5365H156.693L159.326 70.4822H157.576L157.109 69.3264H157.112ZM156.621 68.0857L155.856 66.1837L155.092 68.0857H156.621Z" fill="#007861"/>
<path d="M162.958 64.5365H165.77C166.422 64.5365 166.998 64.6578 167.502 64.9005C168.006 65.1432 168.397 65.489 168.673 65.938C168.949 66.3869 169.088 66.9087 169.088 67.5093C169.088 68.11 168.949 68.6348 168.673 69.0807C168.394 69.5266 168.006 69.8725 167.502 70.1182C166.998 70.3639 166.419 70.4822 165.77 70.4822H162.958V64.5365ZM165.7 69.1414C166.21 69.1414 166.619 68.9958 166.929 68.7076C167.238 68.4194 167.393 68.019 167.393 67.5093C167.393 66.9997 167.238 66.5993 166.929 66.3111C166.619 66.0229 166.21 65.8773 165.7 65.8773H164.638V69.1383H165.7V69.1414Z" fill="#007861"/>
<path d="M175.086 69.1809V70.4793H170.311V64.5336H174.974V65.8319H171.976V66.833H174.619V68.0889H171.976V69.1749H175.086V69.1809Z" fill="#007861"/>
<path d="M184.538 70.4822L184.52 67.3304L182.991 69.8967H182.245L180.725 67.4153V70.4822H179.172V64.5365H180.555L182.645 67.9674L184.684 64.5365H186.067L186.085 70.4822H184.538Z" fill="#007861"/>
<path d="M191.597 69.3264H189.082L188.615 70.4822H186.898L189.522 64.5365H191.178L193.812 70.4822H192.061L191.594 69.3264H191.597ZM191.106 68.0857L190.341 66.1837L189.577 68.0857H191.106Z" fill="#007861"/>
<path d="M200.288 64.5365V70.4822H198.905L196.281 67.3152V70.4822H194.634V64.5365H196.017L198.641 67.7035V64.5365H200.288Z" fill="#007861"/>
<path d="M202.5 69.8785C202.011 69.3962 201.766 68.7137 201.766 67.8309V64.5365H203.446V67.7824C203.446 68.7349 203.822 69.2081 204.575 69.2081C205.327 69.2081 205.697 68.7319 205.697 67.7824V64.5365H207.353V67.8309C207.353 68.7137 207.108 69.3962 206.619 69.8785C206.128 70.3609 205.442 70.6005 204.56 70.6005C203.677 70.6005 202.988 70.3609 202.5 69.8785Z" fill="#007861"/>
<path d="M210.005 65.8683H208.178V64.5336H213.505V65.8683H211.688V70.4793H210.008V65.8683H210.005Z" fill="#007861"/>
<path d="M219.245 69.1809V70.4793H214.47V64.5336H219.132V65.8319H216.135V66.833H218.778V68.0889H216.135V69.1749H219.245V69.1809Z" fill="#007861"/>
<path d="M226.176 64.5365V70.4822H224.793L222.169 67.3152V70.4822H220.522V64.5365H221.905L224.529 67.7035V64.5365H226.176Z" fill="#007861"/>
<path d="M228.991 70.2062C228.497 69.9423 228.105 69.5752 227.823 69.105C227.541 68.6348 227.399 68.1039 227.399 67.5094C227.399 66.9148 227.541 66.3839 227.823 65.9137C228.105 65.4435 228.497 65.0765 228.991 64.8126C229.486 64.5487 230.047 64.4182 230.669 64.4182C231.212 64.4182 231.703 64.5153 232.137 64.7064C232.571 64.8975 232.935 65.1766 233.223 65.5376L232.152 66.5053C231.767 66.0411 231.3 65.8076 230.751 65.8076C230.429 65.8076 230.141 65.8773 229.889 66.0199C229.637 66.1625 229.443 66.3597 229.304 66.6175C229.164 66.8754 229.094 67.1696 229.094 67.5063C229.094 67.8431 229.164 68.1373 229.304 68.3952C229.443 68.653 229.637 68.8532 229.889 68.9928C230.141 69.1353 230.429 69.2051 230.751 69.2051C231.3 69.2051 231.767 68.9746 232.152 68.5074L233.223 69.4751C232.935 69.8361 232.571 70.1152 232.137 70.3063C231.7 70.4974 231.212 70.5945 230.669 70.5945C230.047 70.5945 229.486 70.464 228.991 70.2001V70.2062ZM229.713 72.4358C229.562 72.4024 229.44 72.36 229.343 72.3084L229.565 71.6714C229.734 71.7502 229.91 71.7897 230.092 71.7897C230.375 71.7897 230.517 71.7108 230.517 71.553C230.517 71.4105 230.39 71.3407 230.135 71.3407H229.819L230.041 70.4064H230.881L230.763 70.916C231.012 70.9433 231.197 71.0222 231.315 71.1496C231.433 71.277 231.494 71.4287 231.494 71.6046C231.494 71.8776 231.373 72.09 231.13 72.2508C230.887 72.4085 230.56 72.4874 230.153 72.4874C230.011 72.4874 229.865 72.4692 229.716 72.4358H229.713Z" fill="#007861"/>
<path d="M238.195 69.3265H235.68L235.213 70.4823H233.496L236.12 64.5366H237.776L240.409 70.4823H238.659L238.192 69.3265H238.195ZM237.206 64.0209C237.085 63.9602 236.951 63.8814 236.803 63.7782C236.696 63.7054 236.615 63.6538 236.56 63.6265C236.505 63.5992 236.451 63.5841 236.393 63.5841C236.281 63.5841 236.19 63.6235 236.12 63.7024C236.053 63.7812 236.014 63.8905 236.002 64.033H235.213C235.225 63.6205 235.325 63.2898 235.519 63.0471C235.711 62.8044 235.968 62.6831 236.293 62.6831C236.445 62.6831 236.581 62.7104 236.699 62.768C236.818 62.8257 236.954 62.9046 237.106 63.0047C237.212 63.0775 237.294 63.129 237.349 63.1563C237.403 63.1836 237.458 63.1988 237.516 63.1988C237.628 63.1988 237.719 63.1594 237.789 63.0835C237.858 63.0077 237.895 62.9046 237.907 62.7741H238.696C238.683 63.1776 238.583 63.4991 238.389 63.7418C238.198 63.9845 237.94 64.1058 237.616 64.1058C237.464 64.1058 237.324 64.0755 237.203 64.0179L237.206 64.0209ZM237.704 68.0858L236.939 66.1838L236.175 68.0858H237.704Z" fill="#007861"/>
<path d="M242.445 70.2001C241.945 69.9331 241.55 69.5661 241.265 69.0959C240.98 68.6257 240.837 68.0978 240.837 67.5063C240.837 66.9148 240.98 66.3869 241.265 65.9167C241.55 65.4465 241.945 65.0795 242.445 64.8125C242.946 64.5456 243.51 64.4121 244.141 64.4121C244.772 64.4121 245.333 64.5456 245.837 64.8125C246.337 65.0795 246.732 65.4465 247.017 65.9167C247.302 66.3869 247.444 66.9148 247.444 67.5063C247.444 68.0978 247.302 68.6257 247.017 69.0959C246.732 69.5661 246.337 69.9331 245.837 70.2001C245.336 70.467 244.772 70.6005 244.141 70.6005C243.51 70.6005 242.949 70.467 242.445 70.2001ZM244.954 68.9927C245.197 68.8502 245.391 68.653 245.53 68.3951C245.67 68.1373 245.743 67.843 245.743 67.5063C245.743 67.1696 245.673 66.8753 245.53 66.6175C245.388 66.3596 245.197 66.1594 244.954 66.0199C244.711 65.8773 244.438 65.8075 244.138 65.8075C243.838 65.8075 243.565 65.8773 243.322 66.0199C243.079 66.1624 242.885 66.3596 242.745 66.6175C242.606 66.8753 242.533 67.1696 242.533 67.5063C242.533 67.843 242.603 68.1373 242.745 68.3951C242.888 68.653 243.079 68.8532 243.322 68.9927C243.565 69.1353 243.838 69.2051 244.138 69.2051C244.438 69.2051 244.711 69.1353 244.954 68.9927Z" fill="#007861"/>
<path d="M255.462 69.3264H252.947L252.48 70.4822H250.763L253.387 64.5365H255.043L257.676 70.4822H255.926L255.459 69.3264H255.462ZM254.97 68.0857L254.206 66.1837L253.442 68.0857H254.97Z" fill="#007861"/>
<path d="M264.195 64.5365L261.647 70.4822H259.991L257.452 64.5365H259.269L260.883 68.4103L262.53 64.5365H264.195Z" fill="#007861"/>
<path d="M268.661 69.3264H266.146L265.679 70.4822H263.962L266.586 64.5365H268.242L270.875 70.4822H269.125L268.658 69.3264H268.661ZM268.169 68.0857L267.405 66.1837L266.64 68.0857H268.169Z" fill="#007861"/>
<path d="M277.352 64.5365V70.4822H275.968L273.344 67.3152V70.4822H271.697V64.5365H273.081L275.705 67.7035V64.5365H277.352Z" fill="#007861"/>
<path d="M280.167 70.2062C279.672 69.9423 279.281 69.5752 278.999 69.105C278.717 68.6348 278.574 68.1039 278.574 67.5094C278.574 66.9148 278.717 66.3839 278.999 65.9137C279.281 65.4435 279.672 65.0765 280.167 64.8126C280.661 64.5487 281.222 64.4182 281.844 64.4182C282.387 64.4182 282.879 64.5153 283.313 64.7064C283.746 64.8975 284.11 65.1766 284.399 65.5376L283.328 66.5053C282.942 66.0411 282.475 65.8076 281.926 65.8076C281.605 65.8076 281.317 65.8773 281.065 66.0199C280.813 66.1625 280.619 66.3597 280.479 66.6175C280.34 66.8754 280.27 67.1696 280.27 67.5063C280.27 67.8431 280.34 68.1373 280.479 68.3952C280.619 68.653 280.813 68.8532 281.065 68.9928C281.317 69.1353 281.605 69.2051 281.926 69.2051C282.475 69.2051 282.942 68.9746 283.328 68.5074L284.399 69.4751C284.11 69.8361 283.746 70.1152 283.313 70.3063C282.876 70.4974 282.387 70.5945 281.844 70.5945C281.222 70.5945 280.661 70.464 280.167 70.2001V70.2062ZM280.889 72.4358C280.737 72.4024 280.616 72.36 280.519 72.3084L280.74 71.6714C280.91 71.7502 281.086 71.7897 281.268 71.7897C281.55 71.7897 281.693 71.7108 281.693 71.553C281.693 71.4105 281.565 71.3407 281.31 71.3407H280.995L281.216 70.4064H282.057L281.938 70.916C282.187 70.9433 282.372 71.0222 282.49 71.1496C282.609 71.277 282.669 71.4287 282.669 71.6046C282.669 71.8776 282.548 72.09 282.305 72.2508C282.063 72.4085 281.735 72.4874 281.329 72.4874C281.186 72.4874 281.04 72.4692 280.892 72.4358H280.889Z" fill="#007861"/>
<path d="M289.371 69.3264H286.856L286.389 70.4822H284.672L287.296 64.5365H288.952L291.585 70.4822H289.835L289.368 69.3264H289.371ZM288.879 68.0857L288.115 66.1837L287.35 68.0857H288.879Z" fill="#007861"/>
<path d="M292.401 64.5365H295.213C295.865 64.5365 296.442 64.6578 296.945 64.9005C297.449 65.1432 297.84 65.489 298.116 65.938C298.395 66.3869 298.532 66.9087 298.532 67.5093C298.532 68.11 298.392 68.6348 298.116 69.0807C297.84 69.5266 297.449 69.8725 296.945 70.1182C296.442 70.3609 295.862 70.4822 295.213 70.4822H292.401V64.5365ZM295.143 69.1414C295.653 69.1414 296.063 68.9958 296.372 68.7076C296.681 68.4194 296.836 68.019 296.836 67.5093C296.836 66.9997 296.681 66.5993 296.372 66.3111C296.063 66.0229 295.653 65.8773 295.143 65.8773H294.082V69.1383H295.143V69.1414Z" fill="#007861"/>
<path d="M303.655 69.3264H301.141L300.674 70.4822H298.957L301.581 64.5365H303.237L305.87 70.4822H304.12L303.652 69.3264H303.655ZM303.164 68.0857L302.4 66.1837L301.635 68.0857H303.164Z" fill="#007861"/>
<path d="M305.457 76.2186H99.5603V78.6454H305.457V76.2186Z" fill="#E84E0F"/>
</svg>
