<svg width="200" height="53" viewBox="0 0 200 53" fill="none" xmlns="http://www.w3.org/2000/svg">
<path d="M49.4535 28.075C48.4737 40.0714 38.3993 49.5329 26.1549 49.5329C13.2639 49.5329 2.77695 39.0459 2.77695 26.1549C2.77695 13.2639 13.2639 2.77695 26.1549 2.77695C39.0459 2.77695 48.4737 12.2384 49.4535 24.2348H52.2384C51.2526 10.7051 39.9306 0 26.1549 0C12.3793 0 0 11.7326 0 26.1549C0 40.5772 11.7326 52.3098 26.1549 52.3098C40.5772 52.3098 51.2526 41.6027 52.2384 28.075H49.4535Z" fill="#E84E0F"/>
<path d="M14.2239 21.2417C16.3681 13.6943 23.3224 8.15036 31.5462 8.15036C40.8251 8.15036 48.4875 15.2078 49.4476 24.2349H52.2384C51.2665 13.6725 42.3584 5.37341 31.5462 5.37341C21.7792 5.37341 13.5674 12.1472 11.3538 21.2417H14.2239Z" fill="#E84E0F"/>
<path d="M31.5481 44.1595C23.3224 44.1595 16.3681 38.6155 14.2259 31.0681H11.3557C13.5693 40.1626 21.7812 46.9364 31.5481 46.9364C42.3604 46.9364 51.2684 38.6373 52.2404 28.075H49.4495C48.4875 37.104 40.8271 44.1595 31.5481 44.1595Z" fill="#E84E0F"/>
<path d="M23.975 29.6797H5.03819C3.79055 29.6797 2.77696 28.6661 2.77696 27.4185V24.8915C2.77696 23.6438 3.79055 22.6302 5.03819 22.6302H23.975C24.2349 21.6563 24.5998 20.728 25.0541 19.8533H5.03819C2.25926 19.8533 0.198364 22.1145 0.198364 24.8915V27.4185C0.198364 30.1974 2.25926 32.4567 5.03819 32.4567H25.0541C24.5978 31.5819 24.2329 30.6536 23.975 29.6797Z" fill="#E84E0F"/>
<path d="M49.4376 28.0751C48.5133 33.9364 43.4295 38.4311 37.3123 38.4311C30.5425 38.4311 25.0362 32.9248 25.0362 26.155C25.0362 19.3852 30.5425 13.8789 37.3123 13.8789C43.4275 13.8789 48.5133 18.3756 49.4376 24.2349H52.2384C51.2922 16.8383 44.9608 11.1019 37.3123 11.1019C29.0112 11.1019 22.2592 17.8539 22.2592 26.155C22.2592 34.4561 29.0112 41.208 37.3123 41.208C44.9628 41.208 51.2922 35.4717 52.2384 28.0751H49.4376Z" fill="#E84E0F"/>
<path d="M51.2546 30.8519H38.7345C36.7113 30.8519 35.063 29.2055 35.063 27.1803V25.1293C35.063 23.1061 36.7093 21.4578 38.7345 21.4578H51.2546V24.2348H38.7345C38.2426 24.2348 37.8399 24.6354 37.8399 25.1293V27.1803C37.8399 27.6722 38.2406 28.0749 38.7345 28.0749H51.2546V30.8519Z" fill="#E84E0F"/>
<path d="M74.813 33.1984C72.5776 33.1984 70.7151 33.0119 69.2254 32.639C67.7338 32.2661 66.5437 31.6711 65.6491 30.8519C64.7545 30.0327 64.1218 28.9596 63.7489 27.6326C63.376 26.3076 63.1895 24.6751 63.1895 22.7372V13.1706C63.1895 11.2644 63.376 9.63793 63.7489 8.29706C64.1218 6.95619 64.7545 5.87517 65.6491 5.05597C66.5437 4.23676 67.7358 3.6417 69.2254 3.26682C70.7151 2.89391 72.5776 2.70746 74.813 2.70746H95.9575V8.56286H75.1245C74.0811 8.56286 73.2242 8.64617 72.5538 8.80882C71.8834 8.97345 71.3538 9.24916 70.967 9.63595C70.5802 10.0227 70.3104 10.5385 70.1616 11.1791C70.0129 11.8198 69.9375 12.6033 69.9375 13.5257V22.4675C69.9375 23.4215 70.0109 24.211 70.1616 24.8378C70.3104 25.4646 70.5782 25.9704 70.967 26.3572C71.3538 26.744 71.8913 27.0137 72.5756 27.1625C73.2599 27.3112 74.1248 27.3866 75.1681 27.3866H95.9556V33.1984H74.8111H74.813Z" fill="white"/>
<path d="M145.161 33.1984V13.125L130.275 32.5716C129.588 33.4365 128.591 33.8689 127.28 33.8689C125.968 33.8689 124.969 33.4365 124.284 32.5716L109.442 13.125V33.1984H103.273V4.81006C103.273 3.85598 103.622 3.15579 104.324 2.7095C105.024 2.2632 105.895 2.03906 106.938 2.03906C107.744 2.03906 108.384 2.15014 108.86 2.37428C109.337 2.59842 109.769 2.96339 110.158 3.46919L127.369 26.3136L144.715 3.46919C145.102 2.96339 145.512 2.59644 145.945 2.37428C146.377 2.15014 146.98 2.03906 147.756 2.03906C148.799 2.03906 149.67 2.2632 150.37 2.7095C151.07 3.15579 151.421 3.85797 151.421 4.81006V33.1984H145.163H145.161Z" fill="white"/>
<path d="M187.585 26.1787H166.484L162.148 33.1965H154.325L172.028 5.03225C172.566 4.16743 173.204 3.45335 173.95 2.88606C174.694 2.32075 175.767 2.03711 177.169 2.03711C178.572 2.03711 179.597 2.32075 180.343 2.88606C181.087 3.45335 181.73 4.16743 182.265 5.03225L199.879 33.1965H192.01L187.585 26.1787ZM169.658 20.9481H184.411L177.035 8.92196L169.658 20.9481Z" fill="white"/>
<path d="M66.1351 45.548C65.8118 45.3754 65.5559 45.1354 65.3714 44.8279C65.187 44.5205 65.0938 44.1734 65.0938 43.7846C65.0938 43.3958 65.187 43.0487 65.3714 42.7412C65.5559 42.4338 65.8118 42.1938 66.1351 42.0212C66.4584 41.8487 66.8254 41.7634 67.232 41.7634C67.5871 41.7634 67.9084 41.8268 68.192 41.9518C68.4777 42.0768 68.7137 42.2593 68.9021 42.4953L68.202 43.128C67.95 42.8246 67.6446 42.6718 67.2856 42.6718C67.0753 42.6718 66.8869 42.7174 66.7222 42.8107C66.5576 42.9039 66.4307 43.0328 66.3394 43.2014C66.2482 43.37 66.2025 43.5624 66.2025 43.7826C66.2025 44.0028 66.2482 44.1952 66.3394 44.3638C66.4307 44.5324 66.5576 44.6633 66.7222 44.7545C66.8869 44.8478 67.0753 44.8934 67.2856 44.8934C67.6446 44.8934 67.95 44.7426 68.202 44.4372L68.9021 45.0699C68.7137 45.306 68.4757 45.4884 68.192 45.6134C67.9064 45.7384 67.5871 45.8019 67.232 45.8019C66.8254 45.8019 66.4584 45.7166 66.1351 45.544V45.548Z" fill="white"/>
<path d="M70.3838 45.544C70.0565 45.3694 69.7987 45.1294 69.6122 44.822C69.4257 44.5145 69.3325 44.1694 69.3325 43.7826C69.3325 43.3958 69.4257 43.0507 69.6122 42.7432C69.7987 42.4358 70.0565 42.1958 70.3838 42.0212C70.7111 41.8467 71.08 41.7594 71.4926 41.7594C71.9052 41.7594 72.2721 41.8467 72.6014 42.0212C72.9287 42.1958 73.1865 42.4358 73.373 42.7432C73.5594 43.0507 73.6527 43.3958 73.6527 43.7826C73.6527 44.1694 73.5594 44.5145 73.373 44.822C73.1865 45.1294 72.9287 45.3694 72.6014 45.544C72.2741 45.7185 71.9052 45.8058 71.4926 45.8058C71.08 45.8058 70.7131 45.7185 70.3838 45.544ZM72.0242 44.7545C72.1829 44.6613 72.3098 44.5324 72.4011 44.3638C72.4943 44.1952 72.5399 44.0028 72.5399 43.7826C72.5399 43.5624 72.4943 43.37 72.4011 43.2014C72.3078 43.0328 72.1829 42.9019 72.0242 42.8107C71.8655 42.7174 71.687 42.6718 71.4906 42.6718C71.2942 42.6718 71.1157 42.7174 70.957 42.8107C70.7984 42.9039 70.6714 43.0328 70.5802 43.2014C70.4889 43.37 70.4413 43.5624 70.4413 43.7826C70.4413 44.0028 70.4869 44.1952 70.5802 44.3638C70.6734 44.5324 70.7984 44.6633 70.957 44.7545C71.1157 44.8478 71.2942 44.8934 71.4906 44.8934C71.687 44.8934 71.8635 44.8478 72.0242 44.7545Z" fill="white"/>
<path d="M77.9609 45.7284L77.949 43.6675L76.9493 45.3456H76.4613L75.4676 43.7231V45.7284H74.452V41.8407H75.3565L76.7232 44.0841L78.0561 41.8407H78.9606L78.9725 45.7284H77.9609Z" fill="white"/>
<path d="M82.6659 42.0152C82.9257 42.1323 83.1241 42.2989 83.2649 42.5151C83.4057 42.7313 83.4752 42.9872 83.4752 43.2788C83.4752 43.5703 83.4057 43.8242 83.2649 44.0404C83.1241 44.2547 82.9237 44.4213 82.6659 44.5383C82.408 44.6553 82.1006 44.7129 81.7495 44.7129H81.0711V45.7284H79.9722V41.8407H81.7495C82.1006 41.8407 82.406 41.8982 82.6659 42.0152ZM82.1938 43.6973C82.3088 43.6001 82.3664 43.4593 82.3664 43.2788C82.3664 43.0983 82.3088 42.9574 82.1938 42.8563C82.0787 42.7571 81.9082 42.7055 81.682 42.7055H81.0711V43.8441H81.682C81.9082 43.8441 82.0787 43.7945 82.1938 43.6973Z" fill="white"/>
<path d="M86.6429 44.9727H84.9985L84.6931 45.7284H83.5704L85.2861 41.8407H86.3691L88.0909 45.7284H86.9464L86.6409 44.9727H86.6429ZM86.3215 44.1614L85.8217 42.9178L85.3218 44.1614H86.3215Z" fill="white"/>
<path d="M92.3237 41.8407V45.7284H91.4192L89.7035 43.6576V45.7284H88.6264V41.8407H89.5309L91.2467 43.9115V41.8407H92.3237Z" fill="white"/>
<path d="M97.0228 41.8407V45.7284H95.9239V44.213H94.4243V45.7284H93.3254V41.8407H94.4243V43.3006H95.9239V41.8407H97.0228Z" fill="white"/>
<path d="M98.0224 41.8407H99.1213V45.7284H98.0224V41.8407Z" fill="white"/>
<path d="M102.731 44.9727H101.087L100.782 45.7284H99.6589L101.375 41.8407H102.458L104.179 45.7284H103.035L102.729 44.9727H102.731ZM102.41 44.1614L101.91 42.9178L101.41 44.1614H102.41Z" fill="white"/>
<path d="M106.554 41.8407H108.392C108.819 41.8407 109.196 41.92 109.525 42.0787C109.854 42.2374 110.11 42.4635 110.291 42.7571C110.471 43.0507 110.562 43.3918 110.562 43.7846C110.562 44.1773 110.471 44.5205 110.291 44.812C110.108 45.1036 109.854 45.3297 109.525 45.4904C109.196 45.6511 108.817 45.7284 108.392 45.7284H106.554V41.8407ZM108.347 44.8517C108.68 44.8517 108.948 44.7565 109.15 44.5681C109.352 44.3796 109.454 44.1178 109.454 43.7846C109.454 43.4513 109.352 43.1895 109.15 43.0011C108.948 42.8126 108.68 42.7174 108.347 42.7174H107.652V44.8497H108.347V44.8517Z" fill="white"/>
<path d="M114.484 44.8775V45.7265H111.362V41.8387H114.41V42.6877H112.451V43.3423H114.178V44.1635H112.451V44.8736H114.484V44.8775Z" fill="white"/>
<path d="M120.665 45.7284L120.653 43.6675L119.653 45.3456H119.165L118.171 43.7231V45.7284H117.156V41.8407H118.06L119.427 44.0841L120.76 41.8407H121.664L121.676 45.7284H120.665Z" fill="white"/>
<path d="M125.28 44.9727H123.636L123.33 45.7284H122.208L123.923 41.8407H125.006L126.728 45.7284H125.584L125.278 44.9727H125.28ZM124.959 44.1614L124.459 42.9178L123.959 44.1614H124.959Z" fill="white"/>
<path d="M130.963 41.8407V45.7284H130.059L128.343 43.6576V45.7284H127.266V41.8407H128.17L129.886 43.9115V41.8407H130.963Z" fill="white"/>
<path d="M132.409 45.3337C132.09 45.0183 131.929 44.572 131.929 43.9948V41.8407H133.028V43.9631C133.028 44.5859 133.274 44.8953 133.766 44.8953C134.258 44.8953 134.5 44.5839 134.5 43.9631V41.8407H135.583V43.9948C135.583 44.572 135.422 45.0183 135.103 45.3337C134.781 45.6491 134.333 45.8058 133.756 45.8058C133.179 45.8058 132.728 45.6491 132.409 45.3337Z" fill="white"/>
<path d="M137.316 42.7115H136.122V41.8387H139.605V42.7115H138.417V45.7265H137.318V42.7115H137.316Z" fill="white"/>
<path d="M143.358 44.8775V45.7265H140.236V41.8387H143.285V42.6877H141.325V43.3423H143.053V44.1635H141.325V44.8736H143.358V44.8775Z" fill="white"/>
<path d="M147.891 41.8407V45.7284H146.986L145.27 43.6576V45.7284H144.193V41.8407H145.098L146.813 43.9115V41.8407H147.891Z" fill="white"/>
<path d="M149.731 45.548C149.408 45.3754 149.152 45.1354 148.968 44.8279C148.783 44.5205 148.69 44.1734 148.69 43.7846C148.69 43.3958 148.783 43.0487 148.968 42.7412C149.152 42.4338 149.408 42.1938 149.731 42.0212C150.055 41.8487 150.422 41.7634 150.828 41.7634C151.183 41.7634 151.505 41.8268 151.788 41.9518C152.072 42.0768 152.31 42.2593 152.498 42.4953L151.798 43.128C151.546 42.8246 151.241 42.6718 150.882 42.6718C150.671 42.6718 150.483 42.7174 150.318 42.8107C150.154 42.9039 150.027 43.0328 149.936 43.2014C149.844 43.37 149.799 43.5624 149.799 43.7826C149.799 44.0028 149.844 44.1952 149.936 44.3638C150.027 44.5324 150.154 44.6633 150.318 44.7545C150.483 44.8478 150.671 44.8934 150.882 44.8934C151.241 44.8934 151.546 44.7426 151.798 44.4372L152.498 45.0699C152.31 45.306 152.072 45.4884 151.788 45.6134C151.503 45.7384 151.183 45.8019 150.828 45.8019C150.422 45.8019 150.055 45.7166 149.731 45.544V45.548ZM150.203 47.0059C150.104 46.984 150.025 46.9563 149.961 46.9225L150.106 46.506C150.217 46.5576 150.332 46.5834 150.451 46.5834C150.636 46.5834 150.729 46.5318 150.729 46.4286C150.729 46.3354 150.646 46.2898 150.479 46.2898H150.273L150.418 45.6789H150.967L150.89 46.0121C151.052 46.03 151.173 46.0815 151.251 46.1648C151.328 46.2481 151.368 46.3473 151.368 46.4624C151.368 46.6409 151.288 46.7797 151.13 46.8849C150.971 46.988 150.757 47.0396 150.491 47.0396C150.398 47.0396 150.302 47.0277 150.205 47.0059H150.203Z" fill="white"/>
<path d="M155.749 44.9728H154.105L153.799 45.7285H152.677L154.393 41.8408H155.476L157.197 45.7285H156.053L155.747 44.9728H155.749ZM155.103 41.5036C155.023 41.4639 154.936 41.4123 154.839 41.3449C154.769 41.2973 154.716 41.2636 154.68 41.2457C154.644 41.2279 154.609 41.218 154.571 41.218C154.498 41.218 154.438 41.2437 154.393 41.2953C154.349 41.3469 154.323 41.4183 154.315 41.5115H153.799C153.807 41.2418 153.873 41.0256 154 40.8669C154.125 40.7082 154.293 40.6288 154.506 40.6288C154.605 40.6288 154.694 40.6467 154.771 40.6844C154.849 40.7221 154.938 40.7736 155.037 40.8391C155.107 40.8867 155.16 40.9204 155.196 40.9383C155.232 40.9561 155.267 40.966 155.305 40.966C155.378 40.966 155.438 40.9403 155.483 40.8907C155.529 40.8411 155.553 40.7736 155.561 40.6884H156.077C156.069 40.9522 156.003 41.1624 155.876 41.3211C155.751 41.4798 155.583 41.5591 155.37 41.5591C155.271 41.5591 155.18 41.5393 155.101 41.5016L155.103 41.5036ZM155.428 44.1615L154.928 42.9178L154.428 44.1615H155.428Z" fill="white"/>
<path d="M158.528 45.544C158.201 45.3694 157.943 45.1294 157.757 44.822C157.57 44.5145 157.477 44.1694 157.477 43.7826C157.477 43.3958 157.57 43.0507 157.757 42.7432C157.943 42.4358 158.201 42.1958 158.528 42.0212C158.855 41.8467 159.224 41.7594 159.637 41.7594C160.05 41.7594 160.417 41.8467 160.746 42.0212C161.073 42.1958 161.331 42.4358 161.517 42.7432C161.704 43.0507 161.797 43.3958 161.797 43.7826C161.797 44.1694 161.704 44.5145 161.517 44.822C161.331 45.1294 161.073 45.3694 160.746 45.544C160.419 45.7185 160.05 45.8058 159.637 45.8058C159.224 45.8058 158.857 45.7185 158.528 45.544ZM160.169 44.7545C160.327 44.6613 160.454 44.5324 160.545 44.3638C160.637 44.1952 160.684 44.0028 160.684 43.7826C160.684 43.5624 160.639 43.37 160.545 43.2014C160.452 43.0328 160.327 42.9019 160.169 42.8107C160.01 42.7174 159.831 42.6718 159.635 42.6718C159.439 42.6718 159.26 42.7174 159.101 42.8107C158.943 42.9039 158.816 43.0328 158.725 43.2014C158.633 43.37 158.586 43.5624 158.586 43.7826C158.586 44.0028 158.631 44.1952 158.725 44.3638C158.818 44.5324 158.943 44.6633 159.101 44.7545C159.26 44.8478 159.439 44.8934 159.635 44.8934C159.831 44.8934 160.01 44.8478 160.169 44.7545Z" fill="white"/>
<path d="M167.04 44.9727H165.395L165.09 45.7284H163.967L165.683 41.8407H166.766L168.488 45.7284H167.343L167.038 44.9727H167.04ZM166.718 44.1614L166.218 42.9178L165.719 44.1614H166.718Z" fill="white"/>
<path d="M172.75 41.8407L171.084 45.7284H170.001L168.341 41.8407H169.529L170.584 44.3737L171.661 41.8407H172.75Z" fill="white"/>
<path d="M175.67 44.9727H174.026L173.72 45.7284H172.597L174.313 41.8407H175.396L177.118 45.7284H175.973L175.668 44.9727H175.67ZM175.349 44.1614L174.849 42.9178L174.349 44.1614H175.349Z" fill="white"/>
<path d="M181.353 41.8407V45.7284H180.448L178.733 43.6576V45.7284H177.655V41.8407H178.56L180.276 43.9115V41.8407H181.353Z" fill="white"/>
<path d="M183.194 45.548C182.87 45.3754 182.614 45.1354 182.43 44.8279C182.245 44.5205 182.152 44.1734 182.152 43.7846C182.152 43.3958 182.245 43.0487 182.43 42.7412C182.614 42.4338 182.87 42.1938 183.194 42.0212C183.517 41.8487 183.884 41.7634 184.29 41.7634C184.645 41.7634 184.967 41.8268 185.25 41.9518C185.534 42.0768 185.772 42.2593 185.961 42.4953L185.26 43.128C185.008 42.8246 184.703 42.6718 184.344 42.6718C184.134 42.6718 183.945 42.7174 183.781 42.8107C183.616 42.9039 183.489 43.0328 183.398 43.2014C183.307 43.37 183.261 43.5624 183.261 43.7826C183.261 44.0028 183.307 44.1952 183.398 44.3638C183.489 44.5324 183.616 44.6633 183.781 44.7545C183.945 44.8478 184.134 44.8934 184.344 44.8934C184.703 44.8934 185.008 44.7426 185.26 44.4372L185.961 45.0699C185.772 45.306 185.534 45.4884 185.25 45.6134C184.965 45.7384 184.645 45.8019 184.29 45.8019C183.884 45.8019 183.517 45.7166 183.194 45.544V45.548ZM183.666 47.0059C183.566 46.984 183.487 46.9563 183.424 46.9225L183.568 46.506C183.679 46.5576 183.795 46.5834 183.914 46.5834C184.098 46.5834 184.191 46.5318 184.191 46.4286C184.191 46.3354 184.108 46.2898 183.941 46.2898H183.735L183.88 45.6789H184.429L184.352 46.0121C184.515 46.03 184.636 46.0815 184.713 46.1648C184.79 46.2481 184.83 46.3473 184.83 46.4624C184.83 46.6409 184.751 46.7797 184.592 46.8849C184.433 46.988 184.219 47.0396 183.953 47.0396C183.86 47.0396 183.765 47.0277 183.668 47.0059H183.666Z" fill="white"/>
<path d="M189.212 44.9727H187.567L187.262 45.7284H186.139L187.855 41.8407H188.938L190.66 45.7284H189.515L189.21 44.9727H189.212ZM188.89 44.1614L188.39 42.9178L187.891 44.1614H188.89Z" fill="white"/>
<path d="M191.193 41.8407H193.032C193.458 41.8407 193.835 41.92 194.164 42.0787C194.494 42.2374 194.75 42.4635 194.93 42.7571C195.113 43.0507 195.202 43.3918 195.202 43.7846C195.202 44.1773 195.111 44.5205 194.93 44.812C194.75 45.1036 194.494 45.3297 194.164 45.4904C193.835 45.6491 193.456 45.7284 193.032 45.7284H191.193V41.8407ZM192.986 44.8517C193.319 44.8517 193.587 44.7565 193.79 44.5681C193.992 44.3796 194.093 44.1178 194.093 43.7846C194.093 43.4513 193.992 43.1895 193.79 43.0011C193.587 42.8126 193.319 42.7174 192.986 42.7174H192.292V44.8497H192.986V44.8517Z" fill="white"/>
<path d="M198.552 44.9727H196.908L196.602 45.7284H195.48L197.195 41.8407H198.278L200 45.7284H198.856L198.55 44.9727H198.552ZM198.231 44.1614L197.731 42.9178L197.231 44.1614H198.231Z" fill="white"/>
<path d="M199.73 49.4793H65.0997V51.0661H199.73V49.4793Z" fill="#E84E0F"/>
</svg>
